# xmcd
#
# Track frame offsets:
#	150
#	14470
#	30243
#	48249
#	63938
#	96235
#	121690
#	137512
#	164578
#	186118
#	208797
#	221262
#	236890
#
# Disc length: 3422 seconds
#
# Revision: 0
# Processed by: cddbd v1.5.2PL0 Copyright (c) Steve Scherf et al.
# Submitted via: EasyCDDAExtractor 11.0.0.1
#
DISCID=ad0d5c0d
DTITLE=Various Artist - Jazz and Τζάζ 179 [Blues Avenue]
DYEAR=1900
DGENRE=Blues
TTITLE0=Billy Boy Arnold,Tony Mc Phee and The Groundhogs - Dirty Mother
TTITLE1=Johnny Winter - Self Distruction Blues
TTITLE2=Pat Travers and Carmine Appice - Superstitius
TTITLE3=Henry Vestine - Let's Work Together
TTITLE4=Caned Heat - Bullfrog Blues
TTITLE5=Michael Bloomfield - Uncle Bob's Barrelhouse Blues
TTITLE6=Barry Goldberg,HarveyMandel,Mike Bloomfield,Charlie Musselwhite - You 
TTITLE6=Got me Cryin'
TTITLE7=Boz Scaggs - Hercules
TTITLE8=Crosby and Nash - Love Work Out
TTITLE9=Bo Diddley - Doctor Jeckyll
TTITLE10=Ike and Tina Turner - (I Want to Take You) Higher
TTITLE11=Jefferson Airplane - Young Girl Sunday Blues
TTITLE12=The Electric Flag - Groovin' is Easy
EXTD=
EXTT0=
EXTT1=
EXTT2=
EXTT3=
EXTT4=
EXTT5=
EXTT6=
EXTT7=
EXTT8=
EXTT9=
EXTT10=
EXTT11=
EXTT12=
PLAYORDER=
